# xmcd CD database file
#
# Track frame offsets:
#	187
#	19625
#	40550
#	59925
#
# Disc length: 1075 seconds
#
# Revision: 0
# Processed by: cddbd v1.5.1PL2 Copyright (c) Steve Scherf et al.
# Submitted via: CDex 1.51
#
DISCID=2d043104
DTITLE=チョー・ヨンピル - 故郷へ〜荒木とよひさ作家生活３０周年記念作品〜
DYEAR=1995
DGENRE=JPop
TTITLE0=故郷へ
TTITLE1=夕顔恋唄
TTITLE2=故郷へ（オリジナル・カラオケ）
TTITLE3=夕顔恋唄（オリジナル・カラオケ）
EXTD=YEAR: 1995/10/21
EXTT0=
EXTT1=
EXTT2=
EXTT3=
PLAYORDER=
